<svg xmlns="http://www.w3.org/2000/svg" xmlns:xlink="http://www.w3.org/1999/xlink" width="500" zoomAndPan="magnify" viewBox="0 0 375 374.999991" height="500" preserveAspectRatio="xMidYMid meet" version="1.0"><defs><filter x="0%" y="0%" width="100%" height="100%" id="645d8c7490"><feColorMatrix values="0 0 0 0 1 0 0 0 0 1 0 0 0 0 1 0 0 0 1 0" color-interpolation-filters="sRGB"/></filter><g/><mask id="43b4799b6b"><g filter="url(#645d8c7490)"><rect x="-37.5" width="450" fill="#000000" y="-37.499999" height="449.999989" fill-opacity="0.6275"/></g></mask><clipPath id="7af4ab6970"><path d="M 0.144531 1.019531 L 315 1.019531 L 315 315.269531 L 0.144531 315.269531 Z M 0.144531 1.019531 " clip-rule="nonzero"/></clipPath><clipPath id="4fced91b0f"><rect x="0" width="316" y="0" height="316"/></clipPath></defs><g mask="url(#43b4799b6b)"><g transform="matrix(1, 0, 0, 1, 30, 17)"><g clip-path="url(#4fced91b0f)"><g clip-path="url(#7af4ab6970)"><path fill="#ffffff" d="M 157.421875 1.019531 C 71.652344 1.019531 0.347656 71.574219 0.316406 156.472656 C 0.285156 245.105469 69.820312 315.261719 157.703125 315.269531 C 244.375 315.277344 314.84375 244.933594 314.941406 158.308594 C 315.042969 71.757812 244.199219 1.019531 157.421875 1.019531 Z M 284.1875 141.554688 C 284.128906 141.277344 284.097656 140.992188 284.042969 140.714844 C 283.601562 138.542969 281.6875 135.371094 282.996094 134.449219 C 284.890625 133.113281 287.472656 135.574219 289.773438 136.355469 C 291.363281 136.894531 292.769531 137.941406 294.332031 138.582031 C 296.589844 139.503906 298.015625 140.769531 296.929688 143.234375 C 296.492188 154.160156 295.371094 164.816406 292.96875 175.308594 C 292.746094 176.269531 292.265625 177.203125 292.234375 178.160156 C 292.171875 179.910156 290.84375 180.4375 289.691406 180.40625 C 287.953125 180.363281 288.625 178.671875 288.621094 177.734375 C 288.570312 165.496094 286.75 153.480469 284.1875 141.554688 Z M 84.457031 267.703125 C 84.632812 267.332031 84.808594 266.957031 84.984375 266.585938 C 91.886719 267.550781 98.792969 268.519531 106.824219 269.644531 C 101.53125 271.335938 97.339844 273.328125 92.960938 273.886719 C 88.625 274.441406 87.316406 269.800781 84.457031 267.703125 Z M 90.335938 282.625 C 92.816406 286.539062 95.519531 290.3125 98.703125 295.003906 C 92.128906 292.453125 86.914062 289.667969 81.691406 286.886719 C 79.671875 285.808594 79.910156 284.636719 81.222656 283.242188 C 81.800781 282.625 82.378906 281.996094 83.023438 281.449219 C 87.238281 277.851562 87.367188 277.945312 90.335938 282.625 Z M 85.589844 264.691406 C 83.789062 264.351562 82.984375 263.398438 82.40625 261.789062 C 77.8125 248.921875 74.984375 235.660156 73.496094 222.109375 C 73.015625 217.742188 72.890625 213.335938 72.441406 208.964844 C 72.199219 206.59375 72.742188 205.378906 75.390625 204.996094 C 81.554688 204.109375 87.71875 203.105469 93.785156 201.730469 C 96.9375 201.015625 97.714844 202.550781 98.242188 204.917969 C 100.320312 214.261719 103.109375 223.40625 106.214844 232.449219 C 109.746094 242.734375 113.769531 252.820312 118.707031 262.53125 C 121.117188 267.261719 121.050781 267.296875 115.914062 268.257812 C 115.21875 268.390625 114.519531 268.507812 113.976562 268.601562 C 104.386719 267.421875 94.933594 266.460938 85.589844 264.691406 Z M 26.472656 138.707031 C 26.757812 146.222656 27.046875 153.738281 28.449219 161.152344 C 29.605469 167.269531 30.835938 173.371094 31.976562 179.492188 C 32.148438 180.40625 33.199219 181.414062 32.261719 182.242188 C 31.421875 182.984375 30.460938 182.25 29.558594 181.839844 C 26.730469 180.554688 23.886719 179.296875 21.003906 178.152344 C 18.507812 177.160156 17.457031 175.480469 18.105469 172.828125 C 18.828125 161.722656 20.003906 150.660156 22.445312 139.769531 C 22.570312 139.222656 22.933594 138.734375 23.0625 138.191406 C 23.371094 136.90625 24.140625 136.074219 25.449219 136.269531 C 26.84375 136.480469 26.441406 137.816406 26.472656 138.707031 Z M 28.246094 125.699219 C 27.933594 117.367188 32.542969 109.902344 35.964844 102.058594 C 36.597656 100.609375 37.484375 100.394531 38.996094 101.128906 C 51.542969 107.253906 64.898438 110.851562 78.507812 113.679688 C 79.546875 113.894531 81.765625 113.289062 81.445312 115.730469 C 81.203125 117.570312 81.023438 119.136719 78.46875 119.597656 C 66.128906 121.8125 53.777344 124.027344 41.804688 127.882812 C 38.585938 128.917969 35.226562 129.675781 32.207031 131.125 C 28.363281 132.96875 27.894531 131.292969 28.238281 128.097656 C 28.296875 127.535156 28.246094 126.960938 28.246094 125.699219 Z M 230.449219 50.011719 C 223.453125 48.996094 216.675781 48.007812 209.898438 47.023438 C 209.910156 46.792969 209.925781 46.5625 209.9375 46.332031 C 213.675781 45.132812 217.402344 43.894531 221.15625 42.742188 C 224.210938 41.808594 228.042969 44.742188 230.449219 50.011719 Z M 224.5625 33.503906 C 222.171875 29.75 219.585938 26.125 216.574219 21.691406 C 223.25 24.042969 228.667969 26.988281 234.03125 30.03125 C 235.34375 30.773438 235.21875 31.804688 234.246094 32.820312 C 233.757812 33.332031 233.316406 33.890625 232.808594 34.382812 C 228.347656 38.707031 227.804688 38.59375 224.5625 33.503906 Z M 229.195312 51.734375 C 231.21875 52.078125 232.054688 52.972656 232.703125 54.753906 C 237.5 67.992188 240.296875 81.667969 241.765625 95.636719 C 242.195312 99.71875 242.3125 103.832031 242.738281 107.917969 C 242.953125 110.011719 242.214844 111.109375 240.179688 111.46875 C 233.488281 112.652344 226.789062 113.773438 220.125 115.082031 C 217.371094 115.621094 217.40625 113.464844 217.078125 112.074219 C 214.820312 102.492188 212.011719 93.066406 208.808594 83.765625 C 205.277344 73.507812 201.242188 63.449219 196.308594 53.765625 C 193.847656 48.9375 194.007812 48.734375 199.257812 48.398438 C 200.527344 48.316406 201.804688 48.28125 203.011719 48.230469 C 211.84375 49.039062 220.53125 50.261719 229.195312 51.734375 Z M 265.175781 104.519531 C 259.632812 106.234375 254.066406 107.867188 248.519531 109.550781 C 245.132812 110.578125 244.5625 109.261719 244.425781 106.515625 C 243.800781 93.890625 242.003906 81.429688 238.925781 69.167969 C 237.660156 64.132812 236.066406 59.179688 234.625 54.191406 C 240.546875 58.511719 244.871094 64.089844 249.125 69.714844 C 256.160156 79.015625 262.039062 89.027344 267.425781 99.359375 C 269.039062 102.453125 268.382812 103.527344 265.175781 104.519531 Z M 270.597656 106.289062 C 273.761719 113.789062 276.910156 121.292969 279.152344 130.003906 C 267.960938 126.554688 257.574219 123.578125 246.863281 121.949219 C 245.929688 121.804688 245.378906 121.339844 245.046875 120.4375 C 243.308594 115.695312 245.171875 112.0625 250.132812 110.851562 C 255.910156 109.441406 261.5625 107.667969 267.125 105.589844 C 268.390625 105.117188 269.734375 104.242188 270.597656 106.289062 Z M 242.960938 133.785156 C 241.871094 153.636719 238.859375 173.160156 234.042969 192.433594 C 233.269531 195.535156 231.011719 196.121094 228.691406 195.96875 C 226.15625 195.800781 227.113281 193.308594 227.113281 191.851562 C 227.160156 168.746094 224.417969 145.964844 219.5 123.414062 C 218.980469 121.042969 219.128906 119.375 222.523438 119.980469 C 228.621094 121.070312 234.789062 121.800781 240.933594 122.644531 C 242.828125 122.90625 243.039062 124.113281 242.984375 125.707031 C 242.898438 128.398438 242.960938 131.089844 242.960938 133.785156 Z M 229.542969 201.4375 C 228.601562 201.132812 226.9375 201.683594 227.214844 199.84375 C 227.511719 197.847656 229.214844 197.742188 230.789062 197.671875 C 231.757812 197.625 232.472656 197.929688 232.191406 199.203125 C 231.671875 200.308594 231.714844 202.148438 229.542969 201.4375 Z M 230.414062 205.234375 C 229.570312 207.582031 228.757812 209.941406 227.929688 212.292969 C 227.644531 212.273438 227.363281 212.257812 227.078125 212.238281 C 227.078125 209.714844 227.078125 207.1875 227.078125 204.660156 C 227.078125 203.34375 227.675781 202.941406 228.953125 203.3125 C 229.964844 203.609375 230.925781 203.808594 230.414062 205.234375 Z M 170.664062 196.046875 C 167.648438 196.132812 168.113281 193.980469 168.226562 192.226562 C 168.949219 180.894531 169.105469 169.546875 169.882812 158.199219 C 169.882812 146.855469 169.949219 135.507812 169.832031 124.164062 C 169.808594 121.640625 170.476562 120.863281 173.125 120.683594 C 183.878906 119.957031 194.691406 120.023438 205.378906 118.40625 C 205.9375 118.324219 206.511719 118.375 207.082031 118.367188 C 215.867188 118.238281 216.460938 118.570312 218.257812 127.039062 C 221.101562 140.429688 222.746094 153.984375 224.035156 167.621094 C 224.820312 175.960938 224.230469 184.355469 225.527344 192.636719 C 226.039062 195.894531 224.453125 196.605469 221.5625 197.070312 C 204.515625 199.820312 187.640625 195.554688 170.664062 196.046875 Z M 193.15625 198.730469 C 185.675781 199.808594 178.234375 200.765625 170.710938 200.398438 C 169.691406 200.347656 168.203125 200.808594 168.257812 198.960938 C 168.300781 197.503906 169.507812 197.621094 170.453125 197.664062 C 178.023438 197.996094 185.589844 198.371094 193.15625 198.730469 Z M 166.710938 192.53125 C 166.761719 195.15625 165.746094 195.992188 163.164062 195.855469 C 159.054688 195.640625 154.917969 195.554688 150.8125 195.78125 C 147.859375 195.941406 146.855469 195.097656 146.898438 192.03125 C 147.0625 180.675781 148.625 135.261719 148.515625 123.902344 C 148.492188 121.457031 149.296875 120.691406 151.691406 120.796875 C 155.664062 120.972656 159.664062 121.089844 163.625 120.800781 C 167.136719 120.546875 168.324219 121.597656 168.164062 125.246094 C 167.347656 143.40625 167.960938 161.597656 166.894531 179.753906 C 166.644531 184.003906 166.628906 188.273438 166.710938 192.53125 Z M 141.53125 196.089844 C 129.050781 196.492188 116.574219 197.171875 104.105469 197.898438 C 99.742188 198.148438 98.132812 196.335938 97.234375 192.054688 C 92.777344 170.816406 90.835938 149.320312 89.742188 127.710938 C 89.335938 119.644531 89.480469 120.160156 97.421875 119.058594 C 105.574219 117.921875 113.550781 118.894531 121.597656 119.316406 C 128.328125 119.671875 136.476562 120.34375 143.457031 120.679688 C 144.5625 120.734375 145.429688 121.644531 145.429688 122.75 L 145.425781 191.765625 C 145.46875 194.75 144.871094 195.984375 141.53125 196.089844 Z M 142.921875 200.390625 C 135.789062 200.085938 128.660156 199.726562 121.527344 199.382812 C 121.527344 199.132812 121.527344 198.882812 121.527344 198.632812 C 128.683594 198.304688 135.839844 197.957031 143 197.667969 C 143.898438 197.628906 145.140625 197.375 145.25 198.851562 C 145.390625 200.65625 143.972656 200.433594 142.921875 200.390625 Z M 71.914062 198.75 C 71.679688 197.339844 71.328125 195.449219 74.027344 195.871094 C 78.742188 196.609375 83.476562 197.230469 88.199219 197.910156 C 90.269531 198.203125 92.335938 198.515625 94.40625 198.820312 C 94.449219 199.078125 94.496094 199.335938 94.539062 199.59375 C 87.554688 200.929688 80.609375 202.625 73.5625 203.417969 C 70.816406 203.730469 72.195312 200.417969 71.914062 198.75 Z M 91.976562 196.503906 C 86.355469 195.226562 80.585938 194.488281 74.84375 193.855469 C 72.039062 193.542969 71.75 192.214844 72.039062 189.929688 C 72.359375 187.398438 72.4375 184.835938 72.621094 182.289062 C 73.25 162.542969 76.339844 143.164062 81.105469 124.007812 C 81.855469 120.980469 83.679688 120.628906 86.023438 120.777344 C 88.71875 120.945312 87.785156 123.300781 87.933594 124.699219 C 88.703125 132.027344 88.265625 139.394531 88.882812 146.769531 C 90.1875 162.265625 92.265625 177.609375 95.484375 192.800781 C 96.222656 196.285156 96.015625 197.425781 91.976562 196.503906 Z M 86.527344 113.375 C 84.90625 113.183594 84.304688 112.363281 84.871094 110.78125 C 85.699219 108.46875 86.527344 106.15625 87.355469 103.84375 C 87.636719 103.917969 87.914062 103.992188 88.191406 104.066406 C 88.191406 106.441406 88.207031 108.816406 88.183594 111.191406 C 88.171875 112.296875 88.335938 113.585938 86.527344 113.375 Z M 85.460938 114.945312 C 86.6875 115.070312 87.726562 115.289062 87.675781 116.832031 C 87.613281 118.761719 86.199219 118.585938 84.929688 118.585938 C 83.972656 118.585938 82.726562 118.820312 83.003906 117.207031 C 83.226562 115.894531 83.734375 114.765625 85.460938 114.945312 Z M 144.464844 118.6875 C 136.835938 118.855469 129.261719 118.09375 121.6875 117.082031 C 129.335938 117.019531 136.910156 116.117188 144.515625 115.839844 C 145.550781 115.800781 147.015625 115.476562 146.976562 117.277344 C 146.941406 119.03125 145.511719 118.664062 144.464844 118.6875 Z M 164.4375 200.410156 C 161.746094 200.417969 159.058594 200.414062 156.367188 200.414062 C 156.367188 200.40625 156.367188 200.398438 156.367188 200.394531 C 153.820312 200.394531 151.273438 200.410156 148.726562 200.382812 C 147.839844 200.375 147.003906 200.171875 147.011719 199.011719 C 147.015625 197.863281 147.84375 197.636719 148.726562 197.632812 C 153.964844 197.613281 159.203125 197.617188 164.4375 197.636719 C 165.324219 197.640625 166.191406 197.824219 166.152344 198.984375 C 166.117188 200.046875 165.386719 200.40625 164.4375 200.410156 Z M 165.929688 205.65625 C 165.164062 219.097656 164.523438 232.546875 163.75 245.988281 C 163.433594 251.503906 162.792969 257 162.5 262.519531 C 162.394531 264.480469 161.867188 265.382812 159.800781 265.214844 C 158.25 265.089844 156.679688 265.191406 155.117188 265.191406 C 147.945312 265.195312 147.855469 265.195312 147.765625 257.824219 C 147.664062 249.597656 146.980469 215.277344 146.851562 206.34375 C 146.816406 203.722656 147.355469 202.46875 150.328125 202.640625 C 154.574219 202.886719 158.847656 202.824219 163.101562 202.6875 C 165.386719 202.613281 166.054688 203.464844 165.929688 205.65625 Z M 150.769531 115.835938 C 153.460938 115.820312 156.152344 115.832031 158.839844 115.832031 C 158.839844 115.824219 158.839844 115.820312 158.839844 115.816406 C 161.105469 115.816406 163.371094 115.777344 165.636719 115.832031 C 166.6875 115.855469 168.089844 115.542969 168.042969 117.339844 C 168.011719 118.6875 166.984375 118.835938 165.957031 118.910156 C 160.863281 119.285156 155.773438 119.1875 150.683594 118.8125 C 149.835938 118.75 148.941406 118.640625 148.867188 117.492188 C 148.78125 116.132812 149.679688 115.839844 150.769531 115.835938 Z M 170.011719 117.09375 C 170.15625 115.609375 171.378906 115.804688 172.277344 115.933594 C 178.710938 116.847656 185.210938 116.589844 191.640625 117.117188 C 185.226562 119.046875 178.710938 118.414062 172.269531 118.742188 C 171.152344 118.796875 169.847656 118.839844 170.011719 117.09375 Z M 242.960938 120.246094 C 242.726562 121.691406 241.382812 120.648438 240.496094 120.519531 C 233.417969 119.46875 226.339844 118.4375 218.222656 117.246094 C 226.273438 115.777344 233.308594 114.476562 240.351562 113.234375 C 241.246094 113.078125 242.644531 112.574219 242.84375 113.949219 C 243.144531 116.019531 243.289062 118.199219 242.960938 120.246094 Z M 215.222656 112.464844 C 215.820312 114.789062 214.980469 116.003906 212.519531 115.988281 C 210.8125 115.980469 209.109375 115.988281 207.40625 115.988281 C 195.792969 115.464844 184.21875 114.003906 172.566406 114.34375 C 170.535156 114.402344 169.835938 113.660156 169.871094 111.644531 C 170.1875 92.476562 169.332031 73.324219 168.898438 54.167969 C 168.839844 51.710938 169.71875 51.089844 172.058594 50.96875 C 177.859375 50.675781 183.660156 50.183594 189.425781 49.5 C 191.359375 49.273438 192.242188 49.871094 193.042969 51.441406 C 202.957031 70.871094 209.828125 91.398438 215.222656 112.464844 Z M 170.996094 49.484375 C 169.753906 49.667969 168.710938 49.402344 168.648438 47.8125 C 168.582031 46.132812 169.71875 46.023438 170.917969 46.085938 C 176.945312 46.386719 182.972656 46.714844 189 47.035156 C 183.136719 49.203125 176.976562 48.609375 170.996094 49.484375 Z M 187.152344 45.242188 C 181.34375 44.996094 175.539062 44.679688 169.730469 44.382812 C 168.695312 44.332031 168.277344 43.722656 168.214844 42.738281 C 167.628906 34.019531 167.03125 25.300781 166.378906 15.660156 C 175.945312 23.945312 182.558594 33.203125 188.273438 43.191406 C 189.183594 44.78125 188.671875 45.304688 187.152344 45.242188 Z M 164.898438 49.535156 C 163.066406 49.535156 161.230469 49.535156 159.394531 49.535156 C 159.394531 49.542969 159.394531 49.554688 159.394531 49.5625 C 157.984375 49.5625 156.570312 49.605469 155.164062 49.546875 C 154.230469 49.507812 153.007812 49.675781 153.1875 48.109375 C 153.300781 47.128906 153.445312 45.996094 154.765625 45.984375 C 158.292969 45.945312 161.820312 45.976562 165.34375 46.039062 C 166.429688 46.058594 166.632812 46.875 166.6875 47.800781 C 166.765625 49.117188 166.058594 49.535156 164.898438 49.535156 Z M 156.308594 51.371094 C 156.726562 51.4375 157.160156 51.414062 157.585938 51.417969 C 167.164062 51.496094 167.25 51.496094 167.441406 61.378906 C 167.585938 68.898438 168.101562 101.839844 168.265625 110.78125 C 168.320312 113.804688 167.035156 114.308594 164.421875 114.152344 C 160.316406 113.90625 156.1875 113.835938 152.078125 113.953125 C 149.753906 114.019531 149.117188 113.171875 149.226562 110.988281 C 149.695312 101.636719 149.925781 92.269531 150.5 82.921875 C 151.085938 73.4375 152.074219 63.980469 152.652344 54.496094 C 152.816406 51.800781 153.851562 50.980469 156.308594 51.371094 Z M 148.386719 49.511719 C 140.8125 49.011719 133.246094 48.429688 125.679688 47.875 C 125.726562 47.550781 125.773438 47.226562 125.820312 46.902344 C 133.296875 46.574219 140.773438 46.210938 148.25 45.960938 C 149.449219 45.917969 151.28125 45.222656 151.335938 47.632812 C 151.390625 49.945312 149.707031 49.601562 148.386719 49.511719 Z M 147.964844 51.113281 C 149.917969 51.109375 151.050781 51.371094 150.875 53.953125 C 149.5625 72.914062 148.40625 91.882812 147.273438 110.851562 C 147.148438 112.96875 146.839844 114.332031 144.230469 114.285156 C 132.015625 114.0625 119.847656 114.960938 109.714844 115.960938 C 102.398438 116.203125 97.289062 114.746094 92.066406 114.308594 C 89.035156 114.054688 90.175781 111.9375 90.042969 110.207031 C 88.53125 90.265625 99.546875 74.667969 107.796875 58.03125 C 111.574219 50.417969 116.003906 46.679688 125.109375 49.140625 C 132.449219 51.125 140.28125 51.128906 147.964844 51.113281 Z M 92.699219 83.433594 C 91.734375 78.613281 93.347656 73.984375 94.121094 69.371094 C 95.070312 63.710938 96.886719 58.203125 98.125 52.585938 C 98.632812 50.273438 99.621094 49.203125 102.082031 49.230469 C 105.023438 49.265625 107.902344 47.945312 111.585938 48.785156 C 104.332031 60.1875 98.300781 71.628906 92.699219 83.433594 Z M 99.925781 40.898438 C 99.308594 42.28125 98.089844 42.039062 97.015625 41.609375 C 94.429688 40.566406 91.632812 39.96875 89.171875 38.015625 C 94.144531 34.128906 99.1875 30.628906 105.855469 27.316406 C 103.554688 32.601562 101.773438 36.761719 99.925781 40.898438 Z M 89.199219 40.304688 C 91.234375 41.289062 93.378906 42.027344 95.449219 42.945312 C 96.632812 43.46875 98.597656 43.289062 98.328125 45.371094 C 98.078125 47.308594 96.675781 48.132812 94.816406 48.433594 C 89.230469 49.335938 83.667969 50.351562 78.078125 51.214844 C 76.589844 51.445312 75.21875 52.625 72.859375 51.492188 C 77.199219 47.730469 81.21875 44.222656 85.265625 40.746094 C 86.445312 39.738281 87.71875 39.589844 89.199219 40.304688 Z M 95.335938 50.199219 C 95.710938 50.160156 96.113281 50.425781 96.644531 50.589844 C 92.628906 64.328125 90.484375 78.316406 88.820312 92.457031 C 88.074219 98.78125 85.007812 104.828125 82.992188 111 C 82.542969 112.378906 81.660156 112.476562 80.324219 112.203125 C 66.703125 109.421875 53.28125 106.050781 40.648438 100.023438 C 38.34375 98.921875 37.921875 98.074219 39.207031 95.714844 C 47.042969 81.34375 56.738281 68.351562 67.910156 56.429688 C 68.570312 55.722656 69.402344 54.917969 70.285156 54.71875 C 78.566406 52.851562 86.875 51.085938 95.335938 50.199219 Z M 39.835938 90.429688 C 38.996094 91.894531 38.230469 93.40625 37.324219 94.832031 C 36.746094 95.75 36.773438 97.578125 34.789062 96.726562 C 33.144531 96.019531 32.898438 94.808594 33.363281 93.261719 C 34.34375 90.023438 35.257812 86.761719 36.308594 83.542969 C 37.050781 81.261719 38.207031 79.097656 38.777344 76.78125 C 42.085938 63.359375 51.515625 57.757812 65 56.605469 C 55.058594 67.058594 46.816406 78.28125 39.835938 90.429688 Z M 33.570312 98.207031 C 34.414062 98.566406 35.371094 98.90625 34.585938 100.285156 C 33.453125 102.261719 32.882812 104.558594 31.160156 106.453125 C 30.179688 103.800781 31.714844 101.652344 31.839844 99.359375 C 31.890625 98.460938 32.53125 97.761719 33.570312 98.207031 Z M 28.214844 138.070312 C 28.203125 136.363281 28.007812 134.722656 30.136719 133.90625 C 45.441406 128.023438 61.375 124.621094 77.535156 121.800781 C 79.511719 121.5625 79.886719 122.476562 79.378906 124.316406 C 75.300781 139.078125 72.96875 154.160156 71.472656 169.367188 C 70.804688 176.132812 70.597656 182.945312 70.359375 189.742188 C 70.277344 192.058594 69.847656 193.121094 67.191406 192.550781 C 57.414062 190.464844 47.707031 188.132812 38.171875 185.097656 C 36.109375 184.441406 34.796875 183.480469 34.246094 181.257812 C 30.730469 167.066406 28.335938 152.730469 28.214844 138.070312 Z M 67.742188 194.488281 C 71.074219 195.015625 70.351562 197.652344 70.234375 199.757812 C 70.125 201.730469 71.386719 204.101562 67.746094 204.972656 C 61.027344 206.585938 54.453125 208.824219 47.871094 210.96875 C 46.285156 211.488281 45.210938 211.742188 44.441406 209.96875 C 41.207031 202.496094 38.191406 194.949219 35.941406 186.535156 C 46.75 189.792969 57.085938 192.796875 67.742188 194.488281 Z M 54.125 210.550781 C 58.164062 209.28125 62.289062 208.285156 66.328125 207.007812 C 69.140625 206.117188 70.417969 206.253906 70.640625 209.898438 C 71.550781 224.875 73.722656 239.679688 78.035156 254.105469 C 78.914062 257.039062 79.867188 259.949219 80.785156 262.871094 C 67.757812 250.546875 57.773438 236.386719 49.734375 220.855469 C 45.789062 213.234375 45.867188 213.144531 54.125 210.550781 Z M 99.964844 204.34375 C 99.359375 202.007812 99.621094 201.105469 102.367188 200.5625 C 108.121094 199.417969 113.734375 200.753906 119.292969 201.257812 C 126.929688 201.953125 134.59375 201.511719 142.214844 202.46875 C 144.894531 202.808594 145.441406 203.625 145.410156 206.054688 C 145.296875 215.410156 146.144531 252.554688 146.277344 261.765625 C 146.308594 264.179688 145.925781 265.269531 143.140625 265.386719 C 137.769531 265.613281 132.40625 266.238281 127.0625 266.890625 C 124.292969 267.230469 122.761719 266.378906 121.457031 263.789062 C 111.929688 244.816406 105.261719 224.835938 99.964844 204.34375 Z M 144.332031 267.175781 C 145.519531 267.105469 146.257812 267.425781 146.339844 268.71875 C 146.433594 270.160156 145.476562 270.34375 144.410156 270.296875 C 138.207031 270.019531 132.007812 269.71875 125.804688 269.425781 C 131.929688 267.652344 138.144531 267.554688 144.332031 267.175781 Z M 144.5 272 C 145.988281 272.003906 146.882812 272.65625 146.992188 274.25 C 147.554688 282.574219 148.144531 290.894531 148.699219 299.21875 C 148.714844 299.417969 148.4375 299.632812 147.972656 300.308594 C 138.757812 292.132812 131.832031 282.40625 126.230469 271.996094 C 132.421875 271.996094 138.460938 271.992188 144.5 272 Z M 150.15625 266.894531 C 153.527344 266.824219 156.894531 266.800781 160.265625 266.785156 C 161.246094 266.78125 161.859375 267.246094 161.808594 268.308594 C 161.761719 269.332031 161.597656 270.339844 160.265625 270.375 C 158.582031 270.421875 156.898438 270.386719 155.214844 270.386719 C 155.214844 270.375 155.214844 270.359375 155.214844 270.347656 C 153.667969 270.347656 152.125 270.355469 150.578125 270.34375 C 149.558594 270.332031 148.574219 270.265625 148.53125 268.863281 C 148.496094 267.710938 148.933594 266.921875 150.15625 266.894531 Z M 163.035156 274.8125 C 163.183594 272.96875 163.949219 272.382812 165.652344 272.316406 C 176.386719 271.890625 187.121094 271.417969 199.019531 270.910156 C 188.246094 285.457031 176.785156 297.535156 161.429688 305.410156 C 160.726562 305.769531 159.898438 306.558594 159.195312 305.753906 C 158.859375 305.367188 159.03125 304.421875 159.160156 303.769531 C 161.035156 294.191406 162.238281 284.527344 163.035156 274.8125 Z M 163.886719 268.710938 C 163.96875 266.828125 165.269531 266.832031 166.582031 266.933594 C 172.085938 267.347656 177.585938 267.800781 183.085938 268.230469 C 184.757812 268.359375 186.433594 268.460938 188.105469 268.574219 C 180.851562 270.550781 173.503906 270.300781 166.175781 270.359375 C 165.054688 270.367188 163.808594 270.480469 163.886719 268.710938 Z M 197.550781 268.269531 C 187.78125 266.4375 177.867188 265.589844 167.945312 265.320312 C 164.273438 265.21875 164.097656 264.085938 164.347656 260.882812 C 165.535156 245.617188 166.375 230.324219 167.324219 215.039062 C 167.417969 213.480469 167.359375 211.917969 167.433594 210.355469 C 167.785156 202.945312 167.816406 203.179688 174.996094 202.539062 C 185.726562 201.582031 196.507812 201.59375 207.246094 200.488281 C 212.457031 199.949219 217.898438 201.589844 223.230469 202.304688 C 224.871094 202.523438 225.035156 203.699219 224.960938 205.148438 C 224.839844 207.554688 224.929688 209.96875 224.929688 212.378906 C 225.683594 218.976562 223.632812 224.917969 221.03125 230.855469 C 215.679688 243.074219 209.707031 254.933594 202.382812 266.105469 C 201.148438 267.984375 199.992188 268.730469 197.550781 268.269531 Z M 222.546875 232.808594 C 223.429688 237.664062 221.796875 242.304688 221.054688 246.953125 C 220.199219 252.34375 218.324219 257.5625 217.273438 262.933594 C 216.683594 265.945312 215.273438 267.289062 212.296875 267.453125 C 209.476562 267.605469 206.671875 267.996094 203.082031 268.363281 C 210.691406 256.636719 216.824219 244.894531 222.546875 232.808594 Z M 218.980469 275.175781 C 221.222656 276.253906 224.957031 276.382812 225.363281 278.472656 C 225.710938 280.273438 222.097656 281.5 220.15625 282.824219 C 216.832031 285.09375 213.335938 287.105469 209.914062 289.222656 C 209.75 288.992188 209.589844 288.761719 209.429688 288.527344 C 211.152344 284.671875 213.042969 280.878906 214.535156 276.9375 C 215.488281 274.417969 216.78125 274.121094 218.980469 275.175781 Z M 219.597656 273.550781 C 218.488281 273.023438 216.5 273.261719 216.855469 271.058594 C 217.179688 269.070312 218.410156 268.480469 220.355469 268.179688 C 227.601562 267.0625 234.808594 265.699219 242.027344 264.429688 C 242.1875 264.632812 242.347656 264.839844 242.511719 265.046875 C 238.109375 268.78125 233.695312 272.5 229.320312 276.261719 C 228.246094 277.1875 227.328125 276.835938 226.230469 276.335938 C 224.046875 275.347656 221.761719 274.582031 219.597656 273.550781 Z M 218.417969 266.433594 C 222.558594 251.84375 224.753906 237.578125 226.460938 223.164062 C 227.15625 217.265625 230.207031 211.65625 232.042969 205.871094 C 232.695312 203.820312 234.148438 204.210938 235.453125 204.472656 C 248.941406 207.152344 262.175781 210.652344 274.695312 216.523438 C 276.945312 217.578125 277.117188 218.703125 275.976562 220.789062 C 268.128906 235.136719 258.566406 248.21875 247.269531 260.042969 C 246.5 260.851562 245.757812 261.597656 244.519531 261.871094 C 236.121094 263.753906 227.707031 265.53125 218.417969 266.433594 Z M 270.175781 234.261719 C 272.789062 230.0625 275.238281 225.765625 277.777344 221.523438 C 278.386719 220.507812 278.6875 218.933594 280.523438 219.867188 C 281.90625 220.574219 282.195312 221.730469 281.832031 223.085938 C 279.03125 233.507812 275.226562 243.53125 269.984375 252.992188 C 269.472656 253.917969 268.714844 254.527344 267.773438 254.875 C 262.367188 256.871094 256.949219 258.839844 251.015625 259.695312 C 257.847656 251.453125 264.570312 243.277344 270.175781 234.261719 Z M 281.574219 218.34375 C 280.625 217.941406 279.886719 217.429688 280.582031 216.132812 C 281.671875 214.09375 282.621094 211.976562 284.097656 208.921875 C 284.753906 212.574219 283.554688 214.78125 283.285156 217.113281 C 283.203125 217.851562 282.726562 218.835938 281.574219 218.34375 Z M 279.078125 214.710938 C 278.332031 216.246094 277.316406 215.964844 275.980469 215.308594 C 263.433594 209.140625 250.0625 205.582031 236.417969 202.878906 C 235.195312 202.636719 233.308594 202.769531 233.753906 200.503906 C 234.046875 199.011719 233.925781 197.160156 235.976562 196.863281 C 253.289062 194.363281 270.207031 190.269531 286.660156 184.203125 C 288.394531 195.632812 283.71875 205.167969 279.078125 214.710938 Z M 281.519531 184 C 267.894531 188.683594 253.886719 191.761719 239.765625 194.390625 C 235.238281 195.234375 235.167969 195.007812 236.289062 190.550781 C 241.503906 169.867188 244.109375 148.828125 244.792969 127.539062 C 244.886719 124.601562 245.128906 123.453125 248.683594 124.1875 C 258.347656 126.183594 267.882812 128.566406 277.28125 131.5625 C 279.316406 132.210938 280.355469 133.277344 280.859375 135.207031 C 284.332031 148.546875 286.28125 162.117188 287.0625 176.75 C 288.394531 180.753906 285.683594 182.566406 281.519531 184 Z M 298.753906 141.761719 C 307.195312 144.851562 312.773438 152.335938 312.625 159.777344 C 312.546875 163.660156 310.363281 166.335938 307.90625 168.921875 C 304.183594 172.84375 299.722656 175.675781 294.402344 178.265625 C 296.851562 165.886719 299.148438 154.03125 298.753906 141.761719 Z M 292.589844 87.582031 C 303.519531 106.457031 310.042969 126.386719 311.519531 147.992188 C 307.804688 144.835938 304.21875 141.875 300.183594 139.550781 C 298.570312 138.621094 298.710938 137.3125 298.734375 135.917969 C 298.984375 121.082031 296.199219 106.726562 291.882812 92.609375 C 291.242188 90.511719 291.273438 90.5 292.589844 87.582031 Z M 296.402344 126.742188 C 296.5625 129.285156 296.75 131.828125 296.890625 133.835938 C 297.558594 137.207031 296.5 137.714844 294.148438 136.3125 C 294.027344 136.238281 293.90625 136.148438 293.773438 136.113281 C 284.460938 133.628906 278.734375 128.078125 277.164062 118.1875 C 276.558594 114.375 274.542969 110.734375 272.828125 107.179688 C 271.664062 104.765625 271.785156 103.539062 274.472656 102.421875 C 279.183594 100.460938 283.542969 97.785156 287.332031 94.328125 C 289.195312 92.628906 289.828125 92.765625 290.585938 95.292969 C 293.660156 105.578125 295.730469 116.023438 296.402344 126.742188 Z M 290.542969 80.65625 C 288.628906 77.882812 286.71875 75.109375 284.804688 72.335938 C 288.332031 74.003906 290.21875 76.804688 290.542969 80.65625 Z M 275.535156 57.15625 C 277.996094 60.238281 280.453125 63.320312 282.914062 66.402344 C 278.101562 65.179688 277.621094 60.53125 274.320312 58.117188 C 274.726562 57.796875 275.128906 57.476562 275.535156 57.15625 Z M 280.285156 70.558594 C 283.058594 76.113281 285.734375 81.691406 287.992188 87.488281 C 288.800781 89.5625 288.570312 90.882812 287.015625 92.332031 C 282.808594 96.253906 277.851562 98.9375 272.734375 101.417969 C 270.21875 102.636719 269.875 100.566406 269.1875 99.160156 C 263.363281 87.296875 256.4375 76.121094 248.296875 65.710938 C 245.257812 61.824219 242.03125 58.085938 238.222656 53.472656 C 251.238281 56.253906 262.902344 59.476562 273.988281 64.609375 C 276.816406 65.917969 278.875 67.742188 280.285156 70.558594 Z M 270.25 58.035156 C 271.296875 59.121094 272.265625 60.28125 273.273438 61.40625 C 262.707031 57.769531 252.246094 54.359375 241.457031 52.441406 C 234.984375 51.289062 231.609375 47.722656 229.269531 42.167969 C 228.5 40.339844 228.625 39.335938 230.371094 38.40625 C 231.484375 37.8125 232.867188 37.175781 233.421875 36.167969 C 236.652344 30.265625 239.988281 33.40625 243.519531 35.765625 C 253.21875 42.253906 262.148438 49.644531 270.25 58.035156 Z M 237.542969 25.863281 C 244.878906 28.617188 262.085938 43.460938 266.46875 50.929688 C 265.0625 50.902344 264.480469 49.886719 263.753906 49.238281 C 256.457031 42.726562 248.746094 36.753906 240.34375 31.738281 C 237.910156 30.285156 236.957031 28.5625 237.542969 25.863281 Z M 235.53125 28.019531 C 226.53125 22.578125 215.46875 21.042969 207.828125 13.101562 C 218.085938 16.214844 229.332031 17.46875 235.53125 28.019531 Z M 205.578125 14.921875 C 198.566406 13.316406 191.742188 11.332031 184.839844 9.617188 C 192.035156 10.351562 199.675781 9.246094 205.578125 14.921875 Z M 210.597656 19.394531 C 216.148438 21.914062 218.980469 28.078125 222.277344 33.191406 C 223.4375 34.996094 226.183594 37.71875 224.855469 38.820312 C 222.613281 40.683594 220.820312 37.308594 219.089844 35.957031 C 205.894531 25.675781 191.613281 17.398438 175.71875 12.011719 C 174.679688 11.660156 173.675781 11.210938 172.652344 10.808594 C 185.851562 11.632812 198.703125 14.003906 210.597656 19.394531 Z M 221.933594 40.621094 C 212.230469 43.613281 203.578125 47.371094 193.792969 45.523438 C 192.171875 45.21875 191.242188 44.453125 190.539062 43.195312 C 184.0625 31.632812 176.429688 21 166.035156 12.5625 C 165.785156 12.363281 165.835938 11.796875 165.625 10.851562 C 186.726562 16.253906 204.824219 26.457031 221.933594 40.621094 Z M 159.117188 10.527344 C 161.324219 10.882812 163.894531 12.308594 164.171875 15.449219 C 164.691406 21.347656 165.3125 27.238281 165.871094 33.136719 C 166.015625 34.679688 166.003906 36.242188 166.171875 37.785156 C 166.90625 44.457031 166.921875 44.457031 160.4375 44.355469 C 153.417969 44.246094 153.414062 44.246094 154.328125 37.273438 C 155.3125 29.726562 156.179688 22.160156 157.40625 14.652344 C 157.636719 13.246094 157.234375 10.226562 159.117188 10.527344 Z M 152.152344 41.648438 C 151.984375 44.261719 150.390625 44.464844 148.367188 44.417969 C 137.863281 44.179688 127.414062 45.125 116.050781 45.882812 C 126.886719 30.652344 139.207031 18.117188 156.488281 9.679688 C 154.421875 20.910156 152.820312 31.222656 152.152344 41.648438 Z M 148.886719 11.167969 C 144.492188 14.488281 140.363281 17.402344 136.464844 20.59375 C 128.722656 26.933594 122.058594 34.335938 116.335938 42.5 C 114.308594 45.390625 112.25 45.746094 109.171875 44.960938 C 101.019531 42.886719 101.191406 43.046875 104.332031 35.238281 C 107.394531 27.621094 112.28125 22.488281 120.242188 19.628906 C 128.988281 16.484375 137.71875 13.398438 146.707031 11.0625 C 147.222656 10.929688 147.8125 11.105469 148.886719 11.167969 Z M 124.210938 11.761719 C 129.097656 11.285156 133.886719 9.835938 138.871094 10.445312 C 131.421875 13.5 123.625 15.335938 116.722656 19.445312 C 116.238281 19.734375 115.164062 19.675781 114.777344 19.324219 C 114.140625 18.746094 114.828125 18.046875 115.265625 17.546875 C 117.695312 14.78125 120.109375 12.164062 124.210938 11.761719 Z M 116.09375 11.355469 C 105.164062 14.472656 94.5 18.332031 84.042969 22.710938 C 93.574219 15.53125 104.617188 12.8125 116.09375 11.355469 Z M 83.171875 25.714844 C 93.082031 20.902344 103.261719 16.875 114.226562 14.59375 C 111.671875 18.902344 109.320312 23.054688 104.527344 25.402344 C 99.101562 28.066406 94.089844 31.554688 89.230469 35.207031 C 86.480469 37.277344 83.425781 36.007812 80.867188 31.929688 C 78.902344 28.800781 80.203125 27.15625 83.171875 25.714844 Z M 77.648438 28.972656 C 78.605469 32.179688 80.402344 34.835938 83.152344 36.746094 C 84.492188 37.679688 84.796875 38.320312 83.347656 39.566406 C 78.308594 43.898438 73.425781 48.40625 68.40625 52.757812 C 66.40625 54.488281 63.65625 54.402344 61.269531 55.195312 C 57.039062 56.59375 52.742188 57.800781 47.464844 59.394531 C 55.675781 46.496094 63.785156 35.070312 77.648438 28.972656 Z M 54.292969 45.484375 C 48.527344 52.355469 46.5625 62.933594 34.679688 64.804688 C 40.804688 57.203125 47.070312 50.867188 54.292969 45.484375 Z M 29.648438 71.632812 C 33.144531 68.347656 37.304688 65.933594 42.832031 63.875 C 38.011719 73.4375 34.460938 82.347656 31.972656 91.644531 C 31.265625 94.296875 30.347656 93.636719 28.867188 92.386719 C 21.832031 86.445312 21.996094 78.824219 29.648438 71.632812 Z M 21.445312 83.992188 C 23.34375 89.054688 26.144531 92.625 29.824219 95.519531 C 31.066406 96.496094 30.324219 97.960938 30.121094 99.136719 C 28.140625 110.5 26.207031 121.878906 22.234375 132.777344 C 21.671875 134.320312 21.148438 135.726562 19.367188 136.628906 C 13.328125 139.699219 7.613281 143.300781 2.589844 149.695312 C 3.976562 125.875 9.859375 104.636719 21.445312 83.992188 Z M 2.800781 155.609375 C 4.511719 146.203125 12.914062 142.882812 20.523438 138.09375 C 19.382812 144.847656 18.175781 150.734375 17.441406 156.683594 C 16.71875 162.535156 16.472656 168.449219 15.949219 175.179688 C 8.246094 170.21875 1 165.492188 2.800781 155.609375 Z M 22.847656 227.707031 C 21.457031 228.335938 21.304688 226.765625 20.902344 226.035156 C 10.96875 207.953125 4.8125 188.714844 3.015625 166.90625 C 6.765625 171.261719 10.21875 174.152344 14.148438 176.414062 C 15.746094 177.335938 16.117188 178.703125 16.144531 180.328125 C 16.410156 195.484375 18.863281 210.28125 23.40625 224.738281 C 23.753906 225.851562 24.140625 227.121094 22.847656 227.707031 Z M 24.675781 221.40625 C 21.628906 211.277344 19.382812 201.015625 18.925781 190.441406 C 18.765625 186.777344 17.378906 183.191406 18.28125 179.207031 C 23.007812 181.1875 27.390625 183.070312 31.816406 184.84375 C 33.304688 185.441406 34.011719 186.503906 34.425781 187.929688 C 36.601562 195.398438 39.277344 202.695312 42.484375 209.777344 C 43.484375 211.984375 43.125 213.019531 40.960938 213.949219 C 36.128906 216.03125 31.601562 218.667969 27.671875 222.210938 C 26.191406 223.546875 25.460938 224.019531 24.675781 221.40625 Z M 35.675781 247.292969 C 32.195312 241.339844 29.609375 234.972656 27.039062 228.59375 C 26.328125 226.835938 26.679688 225.640625 27.914062 224.425781 C 32.125 220.285156 37.234375 217.5625 42.511719 215.085938 C 45.125 213.855469 45.335938 216.160156 46 217.496094 C 52.25 230.097656 59.679688 241.945312 68.5 252.910156 C 70.964844 255.976562 73.527344 258.964844 76.890625 263.003906 C 62.871094 260.039062 50.414062 256.578125 38.71875 250.6875 C 37.183594 249.914062 36.449219 248.613281 35.675781 247.292969 Z M 42.324219 255.027344 C 50.769531 257.835938 59.113281 260.785156 67.761719 262.75 C 69.691406 263.1875 71.59375 263.902344 73.539062 264.0625 C 80.277344 264.613281 83.691406 268.828125 85.972656 274.609375 C 86.542969 276.0625 86.691406 277.378906 85.21875 277.726562 C 81.425781 278.621094 80.222656 285.605469 76.117188 283.308594 C 63.210938 276.082031 52.050781 266.457031 42.324219 255.027344 Z M 77.519531 291.058594 C 65.78125 284.132812 56.167969 275.273438 47.5 264.789062 C 49.011719 264.503906 49.496094 265.523438 50.105469 266.085938 C 57.726562 273.089844 65.875 279.40625 74.742188 284.742188 C 77.136719 286.183594 78.015625 287.964844 77.519531 291.058594 Z M 79.371094 287.238281 C 88.53125 294.019531 99.539062 295.367188 107.574219 302.914062 C 99.027344 303.824219 81.171875 294.425781 79.371094 287.238281 Z M 108.3125 300.964844 C 115.839844 302.929688 122.4375 304.652344 129.03125 306.371094 C 122.074219 306.074219 114.789062 307.058594 108.3125 300.964844 Z M 110.871094 299.714844 C 99.707031 296.761719 95.734375 287.257812 90.25 278.992188 C 89.925781 278.5 89.707031 277.941406 90.136719 277.441406 C 90.6875 276.804688 91.386719 276.890625 92.054688 277.285156 C 92.417969 277.503906 92.761719 277.761719 93.085938 278.035156 C 107.550781 290.171875 123.695312 299.355469 141.542969 305.78125 C 131.007812 305.199219 120.984375 302.390625 110.871094 299.714844 Z M 137.113281 301.8125 C 122.050781 296.332031 108.496094 288.222656 96.007812 278.226562 C 93.519531 276.234375 93.925781 275.351562 96.648438 274.605469 C 104.53125 272.445312 112.269531 269.4375 120.730469 270.886719 C 122.015625 271.109375 123.253906 271.050781 123.984375 272.386719 C 130.5625 284.414062 138.8125 295.128906 149.113281 304.230469 C 149.269531 304.371094 149.210938 304.753906 149.289062 305.277344 C 144.933594 304.960938 141.046875 303.246094 137.113281 301.8125 Z M 155.910156 305.855469 C 153.960938 305.625 151.597656 304.429688 151.214844 302.203125 C 149.632812 292.988281 149.28125 283.636719 148.574219 274.328125 C 148.441406 272.585938 149.449219 272.164062 150.960938 272.230469 C 152.378906 272.292969 153.796875 272.242188 155.214844 272.242188 C 161.394531 272.589844 161.398438 272.589844 160.824219 279.042969 C 160.125 286.929688 159.183594 294.785156 157.511719 302.53125 C 157.25 303.746094 157.886719 306.085938 155.910156 305.855469 Z M 159.035156 313.679688 C 158.273438 313.691406 156.84375 314.332031 156.96875 312.558594 C 157.070312 311.109375 157.949219 310.652344 159.296875 310.902344 C 160.792969 311.179688 162.238281 311.589844 163.878906 312.867188 C 162.078125 314 160.507812 313.660156 159.035156 313.679688 Z M 200.121094 272.386719 C 201.382812 270.640625 202.742188 269.980469 204.683594 271.304688 C 205.019531 271.53125 205.484375 271.574219 205.898438 271.671875 C 214.09375 273.613281 213.925781 273.542969 210.796875 281.160156 C 207.828125 288.390625 203.480469 293.734375 195.753906 296.53125 C 186.378906 299.925781 177.179688 303.722656 167.171875 304.921875 C 180.414062 296.148438 190.992188 285 200.121094 272.386719 Z M 173.863281 306.722656 C 182.957031 303.628906 192 300.421875 200.878906 296.738281 C 194.636719 307.9375 183.359375 304.78125 173.863281 306.722656 Z M 200.179688 304.878906 C 210.386719 301.769531 220.433594 298.199219 230.332031 294.207031 C 221.386719 300.917969 211.011719 303.550781 200.179688 304.878906 Z M 232.28125 290.640625 C 221.996094 295.660156 211.421875 299.820312 199.890625 302.609375 C 203.660156 296.257812 208.28125 291.824219 214.4375 288.75 C 218.566406 286.6875 222.222656 283.683594 226.082031 281.082031 C 228.726562 279.304688 232.011719 280.757812 234.3125 284.667969 C 235.984375 287.5 235.246094 289.191406 232.28125 290.640625 Z M 246.777344 282.128906 C 245.484375 283 244.097656 283.742188 242.859375 284.675781 C 239.710938 287.054688 237.144531 288.140625 235.140625 283.199219 C 234.367188 281.289062 232.074219 279.992188 230.582031 278.523438 C 240.402344 267.613281 251.609375 259.28125 266.492188 257.976562 C 264.757812 263.535156 253.28125 277.753906 246.777344 282.128906 Z M 260.589844 271.042969 C 266.554688 264.191406 268.640625 253.550781 279.523438 251.789062 C 278.132812 255.472656 267.25 266.933594 260.589844 271.042969 Z M 289.300781 239.824219 C 285.574219 246.179688 279.632812 249.363281 273.128906 252.019531 C 277.195312 242.910156 280.769531 233.851562 283.28125 224.40625 C 283.746094 222.660156 284.335938 222.796875 285.578125 223.585938 C 291.351562 227.253906 292.734375 233.964844 289.300781 239.824219 Z M 286.105469 221.71875 C 284.808594 220.691406 284.636719 219.714844 284.890625 218.101562 C 286.753906 206.277344 289.128906 194.582031 293.003906 183.230469 C 293.445312 181.9375 293.898438 180.734375 295.398438 180.023438 C 301.679688 177.03125 307.339844 173.136719 312.691406 166.769531 C 311.007812 190.765625 305.21875 212.144531 293.507812 232.839844 C 292.03125 227.667969 289.460938 224.375 286.105469 221.71875 Z M 286.105469 221.71875 " fill-opacity="1" fill-rule="nonzero"/></g></g></g></g><g fill="#ffffff" fill-opacity="1"><g transform="translate(92.484373, 313.493677)"><g><path d="M 183.75 -229.21875 L 183.75 -191.125 L 117.59375 -191.125 L 117.59375 0 L 72.4375 0 L 72.4375 -191.125 L 6.265625 -191.125 L 6.265625 -229.21875 Z M 183.75 -229.21875 "/></g></g></g></svg>